<svg width="30" height="30" fill="none" xmlns="http://www.w3.org/2000/svg"><path fill-rule="evenodd" clip-rule="evenodd" d="M15 30H7.5A7.5 7.5 0 010 22.5v-15A7.5 7.5 0 017.5 0h15A7.5 7.5 0 0130 7.5v15a7.5 7.5 0 01-7.5 7.5h-2.813A2.344 2.344 0 1015 30z" fill="#3764B9"/><path fill-rule="evenodd" clip-rule="evenodd" d="M14.063 8.438H22.5a4.22 4.22 0 00.431-8.416C22.788.014 22.646 0 22.5 0h-15A7.5 7.5 0 000 7.5v15A14.063 14.063 0 0114.063 8.437z" fill="#507DD2"/><path fill-rule="evenodd" clip-rule="evenodd" d="M22.5 15a7.5 7.5 0 107.5 7.5v-15a7.5 7.5 0 01-7.5 7.5z" fill="#1E4BA0"/><path fill-rule="evenodd" clip-rule="evenodd" d="M24.375 8.438a.938.938 0 01-.938.937h-2.812a.937.937 0 00-.938.938v3.75h3.544a.938.938 0 01.92 1.12l-.563 2.813a.938.938 0 01-.92.754h-2.98V30H15V18.75h-2.813a.938.938 0 01-.937-.938V15a.938.938 0 01.938-.938H15v-3.75a5.625 5.625 0 015.625-5.624h2.813a.937.937 0 01.937.937v2.813z" fill="#fff"/></svg>