<svg width="44" height="44" fill="none" xmlns="http://www.w3.org/2000/svg"><path d="M35.578 32.398a5.592 5.592 0 01-5.586-5.586 5.592 5.592 0 015.586-5.585 5.592 5.592 0 015.586 5.585 5.592 5.592 0 01-5.586 5.586zm0-7.734a2.15 2.15 0 00-2.148 2.148 2.15 2.15 0 002.148 2.149 2.15 2.15 0 002.149-2.148 2.15 2.15 0 00-2.149-2.149zm-14.094 8.68a5.592 5.592 0 01-5.586-5.586 5.592 5.592 0 015.586-5.586 5.592 5.592 0 015.586 5.586 5.592 5.592 0 01-5.586 5.586zm0-7.735a2.15 2.15 0 00-2.148 2.149 2.15 2.15 0 002.148 2.148 2.15 2.15 0 002.149-2.148 2.15 2.15 0 00-2.149-2.149zm-4.468 16.672c0-1.848 1.522-3.351 3.393-3.351h2.966a1.719 1.719 0 100-3.438h-2.966c-3.766 0-6.83 3.046-6.83 6.79a1.719 1.719 0 103.437 0zm-9.453-8.937a5.592 5.592 0 01-5.586-5.586 5.592 5.592 0 015.585-5.586 5.592 5.592 0 015.586 5.586 5.592 5.592 0 01-5.585 5.586zm0-7.735a2.15 2.15 0 00-2.149 2.149 2.15 2.15 0 002.149 2.148 2.15 2.15 0 002.148-2.148 2.15 2.15 0 00-2.149-2.149zM3.438 42.281c0-1.848 1.522-3.351 3.393-3.351h3.481a1.719 1.719 0 100-3.438h-3.48C3.063 35.492 0 38.538 0 42.282a1.719 1.719 0 103.438 0zm26.898-23.203c-.447 0-.886-.174-1.215-.503l-.156-.156a2.743 2.743 0 00-3.164-.52 11.213 11.213 0 01-5.042 1.179H9.539C4.28 19.078 0 14.799 0 9.539S4.28 0 9.54 0h12.976c5.26 0 9.539 4.28 9.539 9.54v7.82a1.719 1.719 0 01-1.719 1.718zM9.54 3.438a6.109 6.109 0 00-6.101 6.101 6.109 6.109 0 006.101 6.102h11.219c1.24 0 2.421-.275 3.511-.818a6.17 6.17 0 014.348-.44V9.54a6.109 6.109 0 00-6.101-6.101H9.539zM42.281 44c-.949 0-1.718-.77-1.718-1.719 0-2.506-2.052-4.545-4.574-4.545h-1.165c-2.522 0-4.574 2.04-4.574 4.545a1.719 1.719 0 11-3.438 0c0-4.401 3.594-7.982 8.012-7.982h1.165c4.417 0 8.011 3.58 8.011 7.982 0 .95-.77 1.719-1.719 1.719zM6.875 9.54a2.148 2.148 0 104.297-.001 2.148 2.148 0 00-4.297 0zm6.875 0a2.148 2.148 0 104.297-.001 2.148 2.148 0 00-4.297 0zm6.875 0a2.148 2.148 0 104.297-.001 2.148 2.148 0 00-4.297 0z" fill="url(#paint0_linear_909_68)"/><defs><linearGradient id="paint0_linear_909_68" x1="22" y1="0" x2="22" y2="44" gradientUnits="userSpaceOnUse"><stop stop-color="#FF8B4A"/><stop offset="1" stop-color="#FF6534"/></linearGradient></defs></svg>