<svg width="44" height="44" fill="none" xmlns="http://www.w3.org/2000/svg"><path d="M39.426 4.316L25.887.538a14.606 14.606 0 00-7.87.004L4.56 4.314c-6.929 2.12-5.568 12.104 1.687 12.272h31.5c7.26-.17 8.612-10.159 1.68-12.27zm-1.68 8.832h-31.5c-3.264-.075-3.878-4.57-.76-5.524l13.46-3.772a11.17 11.17 0 016.017-.003l13.539 3.778c3.121.952 2.509 5.446-.756 5.522zM25.433 37.126c-.949 0-1.718-.77-1.718-1.719V21.57c.09-2.28 3.347-2.278 3.437 0v13.836c0 .95-.77 1.719-1.719 1.719zm-6.96 0c-.95 0-1.72-.77-1.72-1.719V21.57c.091-2.28 3.348-2.278 3.438 0v13.836c0 .95-.77 1.719-1.719 1.719zm-13.75.086c-.95 0-1.72-.77-1.72-1.719V21.57c.091-2.28 3.348-2.278 3.438 0v13.922c0 .95-.77 1.719-1.719 1.719zm6.96-.086c-.949 0-1.718-.77-1.718-1.719V21.57c.09-2.28 3.347-2.278 3.437 0v13.836c0 .95-.77 1.719-1.719 1.719zm17.703 5.156c0 .95-.77 1.719-1.718 1.719H1.715c-2.28-.09-2.28-3.347 0-3.438h25.953c.949 0 1.718.77 1.718 1.72zm14.61-6.911c0 1.496-.607 2.904-1.71 3.966a5.726 5.726 0 01-2.759 1.482v1.463c-.09 2.28-3.348 2.279-3.438 0v-1.588a21.51 21.51 0 01-3.814-1.111 1.719 1.719 0 011.27-3.195c1.948.775 3.96 1.123 4.767 1.123 1.218 0 2.246-.98 2.246-2.14 0-1.18-1.21-2.14-2.696-2.14-1.778 0-3.331-.533-4.492-1.542-3.52-2.996-1.631-8.994 2.805-9.558v-1.677c.091-2.28 3.348-2.279 3.438 0v1.88c.861.17 1.867.45 3.03.901 2.091.911.91 3.946-1.247 3.204-2.112-.822-3.479-.927-4.434-.927-1.134 0-1.99.929-1.99 2.16 0 1.269 1.162 2.121 2.89 2.121 3.382 0 6.134 2.502 6.134 5.578zm-22-29.01a2.148 2.148 0 00-2.149 2.148c.113 2.85 4.184 2.849 4.297 0a2.148 2.148 0 00-2.148-2.149z" fill="url(#paint0_linear_909_82)"/><defs><linearGradient id="paint0_linear_909_82" x1="22" y1="0" x2="22" y2="44" gradientUnits="userSpaceOnUse"><stop stop-color="#FF8B4A"/><stop offset="1" stop-color="#FF6534"/></linearGradient></defs></svg>