<svg width="20" height="20" fill="none" xmlns="http://www.w3.org/2000/svg"><path d="M9.003 9.992a1 1 0 102 0h-2zm2-4.992a1 1 0 10-2 0h2zm-.692 4.053a1 1 0 10-.63 1.898l.63-1.898zm2.374 2.896a1 1 0 00.63-1.898l-.63 1.898zM18 10a8 8 0 01-8 8v2c5.523 0 10-4.477 10-10h-2zm-8 8a8 8 0 01-8-8H0c0 5.523 4.477 10 10 10v-2zm-8-8a8 8 0 018-8V0C4.477 0 0 4.477 0 10h2zm8-8a8 8 0 018 8h2c0-5.523-4.477-10-10-10v2zm1.003 7.992V5h-2v4.992h2zm-1.323.959l3.005.998.63-1.898-3.004-.998-.63 1.898z" fill="#0E2249"/></svg>