<svg width="186" height="186" fill="none" xmlns="http://www.w3.org/2000/svg"><circle cx="93" cy="93" r="93" fill="#fff"/><g filter="url(#filter0_ddi_909_2099)"><path d="M92 128c19.33 0 35-15.67 35-35s-15.67-35-35-35-35 15.67-35 35 15.67 35 35 35z" fill="#9B51E0"/></g><path d="M101.5 93.002c0 .448-.457.77-.457.77l-12.842 7.955c-.936.614-1.701.159-1.701-1.003V85.278c0-1.165.765-1.617 1.703-1.005l12.841 7.958c-.001 0 .456.322.456.77z" fill="#fff"/><g clip-path="url(#clip0_909_2099)" fill="#1E1F25"><path d="M45.1 57.5c-.9 1.2-2 1.9-3.3 2.1-1.4.2-2.6-.1-3.8-1-1.2-.9-1.9-2-2.1-3.3-.2-1.4.1-2.6 1-3.8.6-.8 1.3-1.4 2.1-1.8l1.3.9c-.9.3-1.6.9-2.2 1.7-.6.8-.8 1.7-.7 2.7.1 1 .7 1.7 1.5 2.4.9.6 1.8.9 2.7.7 1-.2 1.7-.7 2.4-1.5.7-.9 1-1.8.9-2.8l1.3.9c-.2 1-.5 1.9-1.1 2.8zm4.3-5.5l-1.1 1.1-6.7-7.2 1.1-1.1 5.3 1.1-.7-5.4 1.1-1.1 6.7 7.2-1.1 1.1-5-5.4.5 4.6-.7.6-4.5-.8 5.1 5.3zM64 39.5a4.8 4.8 0 01-2.3 3.1c-1.2.7-2.5.9-3.8.6-1.3-.4-2.3-1.2-3.1-2.4-.7-1.2-1-2.5-.7-3.8a4.8 4.8 0 012.3-3.1c1.2-.7 2.5-.9 3.8-.6 1.3.3 2.3 1.1 3.1 2.4.8 1.3 1 2.4.7 3.8zm-5.7 2.2c.9.2 1.8.1 2.6-.4s1.3-1.2 1.6-2.1c.2-.9 0-1.9-.5-2.7-.5-.9-1.3-1.5-2.2-1.7-.9-.3-1.8-.1-2.6.4s-1.3 1.2-1.5 2.2c-.2.9 0 1.8.5 2.7.5.8 1.2 1.3 2.1 1.6zm5.8-10.2l-.5-1.3 7.4-2.9.5 1.3-3 1.2 3 7.8-1.4.6-3-7.8-3 1.1zm14.3 4l-1.5.3-2-9.6 4.1-.8c1-.2 1.8-.1 2.5.3s1.1 1 1.3 1.8c.2.8 0 1.6-.4 2.2-.4.7-1.2 1.1-2.2 1.3l-2.6.5.8 4zm-1.7-8.2l.6 2.9 2.5-.5c.6-.1 1-.3 1.3-.7.3-.3.4-.7.3-1.2-.1-.5-.3-.8-.7-1-.4-.2-.8-.2-1.4-.1l-2.6.6zm17.2 6.5l-7.1.3-.4-9.8 7-.3.1 1.4-5.5.2.1 2.4 4.4-.2.1 1.4-4.4.2.1 3.1 5.6-.2v1.5zm2.8-8.3l.2-1.4 8 1-.2 1.4-3.2-.4-1 8.3-1.5-.2 1-8.3-3.3-.4zm13.2 11l-3.9-1.1 2.9-9.4 1.5.4-1 3.2 2.4.7c1.1.3 1.9.9 2.3 1.6.4.7.5 1.6.3 2.5-.3.9-.8 1.5-1.6 1.9-.8.5-1.8.6-2.9.2zM109 31l-1 3.4 2.3.7c.7.2 1.2.2 1.7 0s.8-.6.9-1.1c.2-.5.1-1-.2-1.4-.3-.4-.7-.7-1.4-.9L109 31zm15 12l-4.1-2.5 5.1-8.4 3.8 2.3c.8.5 1.2 1 1.5 1.6.2.6.1 1.3-.3 1.9-.3.4-.6.7-1 .9-.4.2-.8.2-1.2.2.5.4.7.9.8 1.5.1.6 0 1.2-.4 1.8-.4.7-1 1.1-1.8 1.2-.7.2-1.5 0-2.4-.5zm-.5-5.5l-1.6 2.6 2.6 1.6c.5.3 1 .4 1.4.4.4-.1.8-.3 1-.7.3-.4.3-.8.2-1.2-.2-.4-.5-.8-1-1.1l-2.6-1.6zm2.1-3.3l-1.3 2.2 2.3 1.4c.4.3.8.4 1.2.3.4-.1.6-.2.9-.6.2-.4.3-.7.1-1-.1-.3-.4-.6-.9-.9l-2.3-1.4zm4.3 13l-1-.9 6.5-7.3 1.1 1-4.8 5.4 8.8-1.8 1 .9-6.5 7.3-1.1-1 4.8-5.4-8.8 1.8zm5.9 8.6l-.9-1.2 2.8-2.1.6.7c.9-.1 1.9-.3 2.9-.7 1-.5 2.2-1.2 3.6-2.3l1.1-.8 3.9 5.2-6.7 5.1.9 1.1-2.8 2.1-.9-1.2 1.7-1.3-4.5-5.9-1.7 1.3zm3.5-1.2l2.9 3.8 5.6-4.2-2.1-2.7c-1.3 1-2.5 1.7-3.5 2.2-1 .5-2 .8-2.9.9zm7.9 15.4l-3.2-6.4 8.7-4.4 3.1 6.2-1.3.6-2.5-4.8-2.2 1.1 2 3.9-1.3.6-2-3.9-2.8 1.4 2.5 5-1 .7zm4.5 9.7c-1.2-.6-2-1.7-2.4-3-.4-1.4-.3-2.7.4-3.8.7-1.2 1.7-2 3.1-2.4 1.4-.4 2.7-.3 3.9.3 1.2.6 2 1.6 2.4 3 .4 1.4.3 2.7-.4 3.9-.7 1.2-1.7 2-3.1 2.4-1.4.4-2.7.2-3.9-.4zm-.8-6.1c-.5.8-.6 1.7-.3 2.6.3.9.8 1.6 1.7 2 .9.4 1.8.5 2.8.2 1-.3 1.7-.9 2.2-1.7.5-.8.6-1.7.3-2.6-.3-.9-.8-1.6-1.7-2-.8-.4-1.8-.5-2.8-.2-.9.4-1.7.9-2.2 1.7zm-10.2 54.2c.8-1.2 1.9-2 3.3-2.3 1.3-.3 2.6 0 3.8.8 1.2.8 1.9 1.9 2.2 3.3.2 1.3 0 2.6-.9 3.9-.6.8-1.2 1.4-2 1.8l-1.3-.9c.9-.4 1.6-1 2.1-1.8.6-.8.8-1.8.6-2.7-.2-.9-.7-1.7-1.6-2.3-.9-.6-1.8-.8-2.7-.6-1 .2-1.7.7-2.3 1.6-.6.9-.9 1.9-.8 2.8l-1.3-.9c0-.9.3-1.8.9-2.7zm-4.2 5.5l1.1-1.1 6.9 6.9-1.1 1.1-5.4-.9.9 5.3-1.1 1.1-6.9-6.9 1.1-1.1 5.3 5.3-.7-4.5.6-.6 4.5.7-5.2-5.3zm-14.2 13.1c.3-1.3 1-2.4 2.2-3.2 1.2-.8 2.5-1 3.8-.7 1.3.3 2.4 1.1 3.2 2.3.8 1.2 1 2.5.8 3.8-.3 1.3-1 2.4-2.2 3.2-1.2.8-2.5 1-3.8.7-1.3-.3-2.4-1-3.2-2.3-.8-1.2-1-2.5-.8-3.8zm5.6-2.4c-.9-.2-1.8-.1-2.6.5-.8.5-1.3 1.3-1.5 2.2-.2 1 0 1.9.6 2.7.6.9 1.3 1.4 2.2 1.6.9.2 1.8.1 2.6-.4s1.3-1.3 1.5-2.2c.2-.9 0-1.8-.6-2.7-.5-.9-1.2-1.5-2.2-1.7zm-5.4 10.4l.6 1.3-7.4 3.1-.6-1.3 3-1.3-3.3-7.7 1.4-.6 3.3 7.7 3-1.2zm-14.4-3.5l1.5-.4 2.3 9.5-4.1 1c-1 .2-1.8.2-2.5-.2s-1.1-1-1.3-1.8c-.2-.8-.1-1.6.4-2.2.4-.7 1.1-1.1 2.1-1.3l2.6-.6-1-4zm1.9 8.1l-.7-2.8-2.5.6c-.6.1-1 .4-1.2.7-.2.3-.3.7-.2 1.2.1.5.3.8.7.9.4.2.8.2 1.4 0l2.5-.6zm-17.3-5.9l7.1-.5.7 9.8-7 .5-.1-1.4 5.4-.4-.2-2.4-4.4.3-.1-1.4 4.4-.3-.2-3.1-5.6.4v-1.5zm-2.6 8.3l-.1 1.4-8-.7.1-1.4 3.2.3.8-8.4 1.5.1-.8 8.4 3.3.3zm-13.6-10.6l3.9 1-2.5 9.5-1.5-.4.9-3.3-2.4-.6c-1.1-.3-1.9-.8-2.4-1.6-.5-.7-.6-1.6-.4-2.5.2-.9.8-1.6 1.6-2 .8-.3 1.8-.4 2.8-.1zm1.2 5.5l.9-3.5-2.4-.6c-.7-.2-1.2-.2-1.7 0-.4.2-.7.6-.9 1.1-.1.6-.1 1 .2 1.4.3.4.8.7 1.4.9l2.5.7zm-15.4-11.5l4.2 2.4-4.8 8.5-3.9-2.2c-.8-.4-1.3-1-1.5-1.6-.2-.6-.2-1.3.2-1.9.2-.4.6-.7.9-.9.4-.2.8-.3 1.2-.2-.5-.4-.8-.9-.9-1.5-.1-.6 0-1.2.4-1.8.4-.7 1-1.2 1.8-1.3.7-.2 1.5 0 2.4.5zm-1.3 8.9l1.2-2.2-2.3-1.3c-.4-.3-.8-.4-1.2-.3-.4.1-.6.3-.8.6-.2.4-.2.7-.1 1 .1.3.4.6.9.9l2.3 1.3zm1.9-3.4l1.5-2.7-2.6-1.5c-.5-.3-1-.4-1.4-.3-.4.1-.8.3-1 .8-.2.4-.3.8-.1 1.2.2.4.5.7 1 1l2.6 1.5zm-6.7-9.5l1 .8-6.3 7.5-1.2-1 4.6-5.5-8.8 2-1-.9 6.3-7.5 1.2 1-4.6 5.5 8.8-1.9zm-6.2-8.3l.9 1.1-2.7 2.2-.6-.7c-.9.1-1.9.4-2.8.8-1 .5-2.2 1.3-3.6 2.4l-1.1.9-4.1-5 6.5-5.3-.9-1.1 2.7-2.2.9 1.1-1.6 1.3 4.7 5.8 1.7-1.3zm-3.4 1.3l-3-3.7-5.4 4.4 2.2 2.7c1.3-1 2.4-1.8 3.4-2.4.9-.6 1.9-.9 2.8-1zm-8.4-15.2l3.4 6.3-8.6 4.7-3.4-6.1 1.2-.7 2.6 4.8 2.1-1.2-2.1-3.9 1.2-.7 2.1 3.9 2.7-1.5-2.4-4.9 1.2-.7zm-4.8-9.6c1.2.6 2.1 1.6 2.5 2.9.4 1.4.4 2.7-.3 3.9-.6 1.2-1.6 2-3 2.5-1.4.4-2.7.4-3.9-.2-1.2-.6-2.1-1.6-2.5-2.9-.4-1.3-.4-2.7.3-3.9.6-1.2 1.6-2 3-2.5 1.4-.4 2.7-.4 3.9.2zm.9 6.1c.4-.8.5-1.7.2-2.6-.3-.9-.9-1.6-1.7-2-.9-.5-1.8-.5-2.8-.2-1 .3-1.7.9-2.1 1.8-.5.8-.5 1.7-.2 2.6.3.9.9 1.6 1.8 2 .9.4 1.8.4 2.8.1 1-.3 1.6-.9 2-1.7z"/></g><circle cx="31" cy="79" r="2" fill="#1E1F25"/><circle cx="151" cy="110" r="2" fill="#1E1F25"/><defs><clipPath id="clip0_909_2099"><path fill="#fff" transform="translate(26 24)" d="M0 0h133.2v138.8H0z"/></clipPath><filter id="filter0_ddi_909_2099" x="24" y="27" width="140" height="140" filterUnits="userSpaceOnUse" color-interpolation-filters="sRGB"><feFlood flood-opacity="0" result="BackgroundImageFix"/><feColorMatrix in="SourceAlpha" values="0 0 0 0 0 0 0 0 0 0 0 0 0 0 0 0 0 0 127 0" result="hardAlpha"/><feOffset dy="3"/><feGaussianBlur stdDeviation="10.5"/><feComposite in2="hardAlpha" operator="out"/><feColorMatrix values="0 0 0 0 1 0 0 0 0 0.520161 0 0 0 0 0.291667 0 0 0 0.3 0"/><feBlend in2="BackgroundImageFix" result="effect1_dropShadow_909_2099"/><feColorMatrix in="SourceAlpha" values="0 0 0 0 0 0 0 0 0 0 0 0 0 0 0 0 0 0 127 0" result="hardAlpha"/><feOffset dx="2" dy="4"/><feGaussianBlur stdDeviation="17.5"/><feComposite in2="hardAlpha" operator="out"/><feColorMatrix values="0 0 0 0 0.911538 0 0 0 0 0.816667 0 0 0 0 1 0 0 0 1 0"/><feBlend in2="effect1_dropShadow_909_2099" result="effect2_dropShadow_909_2099"/><feBlend in="SourceGraphic" in2="effect2_dropShadow_909_2099" result="shape"/><feColorMatrix in="SourceAlpha" values="0 0 0 0 0 0 0 0 0 0 0 0 0 0 0 0 0 0 127 0" result="hardAlpha"/><feOffset dy="4"/><feGaussianBlur stdDeviation="9.5"/><feComposite in2="hardAlpha" operator="arithmetic" k2="-1" k3="1"/><feColorMatrix values="0 0 0 0 0.726574 0 0 0 0 0.433333 0 0 0 0 1 0 0 0 1 0"/><feBlend in2="shape" result="effect3_innerShadow_909_2099"/></filter></defs></svg>