<svg width="30" height="30" fill="none" xmlns="http://www.w3.org/2000/svg"><path fill-rule="evenodd" clip-rule="evenodd" d="M22.5 30h-15A7.5 7.5 0 010 22.5v-15A7.5 7.5 0 017.5 0h15A7.5 7.5 0 0130 7.5v15a7.5 7.5 0 01-7.5 7.5z" fill="#4682C3"/><path fill-rule="evenodd" clip-rule="evenodd" d="M14.063 8.438H22.5a4.22 4.22 0 00.431-8.416C22.788.014 22.646 0 22.5 0h-15A7.5 7.5 0 000 7.5v15A14.063 14.063 0 0114.063 8.437z" fill="#5F9BDC"/><path fill-rule="evenodd" clip-rule="evenodd" d="M22.5 15a7.5 7.5 0 107.5 7.5v-15a7.5 7.5 0 01-7.5 7.5z" fill="#2D69AA"/><path fill-rule="evenodd" clip-rule="evenodd" d="M24.9 10.22c.15-.477 0-.823-.674-.823h-2.233a.988.988 0 00-.976.628 19.02 19.02 0 01-2.755 4.576c-.52.52-.758.694-1.04.694-.152 0-.347-.174-.347-.651v-4.445c0-.564-.174-.824-.65-.824H12.8a.539.539 0 00-.564.52c0 .542.802.672.889 2.19v3.296c0 .716-.13.846-.412.846-.76 0-2.908-2.797-4.014-5.985-.217-.63-.433-.867-.997-.867H5.446c-.65 0-.758.303-.758.628 0 1.433 4.049 11.537 10.582 11.537 1.431 0 1.605-.325 1.605-.867v-2.017c0-.65.13-.759.585-.759 1.163 0 3.268 2.598 3.812 3.142a1.382 1.382 0 001.046.523h2.234c.65 0 .877-.395.704-1.024-.402-1.293-3.2-3.955-3.35-4.159-.325-.434-.238-.607 0-.998-.021 0 2.71-3.86 2.993-5.16z" fill="#fff"/></svg>