<svg width="62" height="20" fill="none" xmlns="http://www.w3.org/2000/svg"><path d="M59.163 7.366h2.83c-.358-2.759-2.37-4.209-5.165-4.209-2.83 0-4.721 1.503-4.721 4.085 0 2.936 2.437 3.59 3.733 3.855 1.67.336 3.306.372 3.306 1.857 0 1.008-.818 1.503-1.977 1.503-1.432 0-2.386-.743-2.625-2.087H51.75c.17 2.9 2.199 4.457 5.182 4.457 2.76 0 5.028-1.309 5.028-4.138 0-3.042-2.608-3.59-4.432-3.873-1.244-.195-2.608-.371-2.608-1.733 0-.955.7-1.538 1.875-1.538 1.364 0 2.182.795 2.37 1.82zM50.199 3.6h-2.676v12.82h2.675V3.6zm-10.756 8.346h3.494c-.545 1.38-1.772 2.033-3.187 2.033-2.489 0-3.648-1.998-3.648-3.978 0-1.999 1.091-4.032 3.63-4.032 1.552 0 2.71.742 3.154 2.069h2.88c-.494-2.989-3.016-4.704-5.999-4.704-3.682 0-6.443 2.6-6.443 6.702 0 4.156 3 6.614 6.426 6.614 3.375 0 6.017-2.282 6.017-5.854V9.753h-6.324v2.193zM27.206 3.334c-3.068 0-5.335 1.998-5.318 5.323h2.761c-.034-1.45.852-2.777 2.42-2.777 1.364 0 2.165.99 2.165 2.122s-.801 1.769-2.284 2.458c-2.028.938-3.477 1.539-4.96 2.07v3.89h10.329v-2.618h-7.09l.034-.01c1.206-.38 2.112-.792 3.187-1.28 2.3-1.061 3.613-2.388 3.613-4.651 0-2.776-1.977-4.527-4.857-4.527z" fill="#403F41"/><path d="M14.626 11.91c-3.477.018-4.04 2.194-4.227 4.033l-.085.813h-.699l-.085-.813c-.187-1.84-.767-4.014-4.125-4.032-.562-1.203-.8-2.175-.8-3.272 0-2.74 2.164-5.305 5.368-5.305 3.205 0 5.335 2.547 5.335 5.323 0 1.079-.102 2.051-.682 3.254zM9.94.01C4.655.01.326 4.5.326 10c0 5.518 4.33 10.01 9.613 10.01 5.335 0 9.647-4.492 9.647-10.01 0-5.499-4.312-9.99-9.647-9.99z" fill="#29B24A"/></svg>