<svg width="44" height="44" fill="none" xmlns="http://www.w3.org/2000/svg"><path d="M33.688 43.996H10.311C4.627 43.996 0 39.37 0 33.684v-14.46c0-3.197 1.517-6.262 4.058-8.2l11.688-8.915a10.337 10.337 0 0112.508 0l3.715 2.831V2.747c.09-2.28 3.347-2.28 3.437 0V8.41a1.719 1.719 0 01-2.76 1.367L26.17 4.843a6.892 6.892 0 00-8.34 0L6.144 13.757a6.914 6.914 0 00-2.705 5.466v14.461a6.883 6.883 0 006.874 6.875h23.376a6.883 6.883 0 006.874-6.875v-14.46c0-2.158-1-4.208-2.675-5.486a1.719 1.719 0 112.085-2.733C42.494 12.929 44 16.001 44 19.223v14.461c0 5.686-4.626 10.313-10.313 10.313zM18.562 19.848a2.148 2.148 0 00-2.148 2.149c.114 2.85 4.184 2.848 4.297 0a2.148 2.148 0 00-2.148-2.149zm9.024 2.149c-.114 2.85-4.184 2.848-4.297 0 .114-2.851 4.184-2.849 4.297 0zm-6.875 6.875c-.114 2.85-4.184 2.848-4.297 0 .114-2.851 4.184-2.849 4.297 0zm6.875 0c-.114 2.85-4.184 2.848-4.297 0 .114-2.851 4.184-2.849 4.297 0z" fill="url(#paint0_linear_909_75)"/><defs><linearGradient id="paint0_linear_909_75" x1="22" y1=".003" x2="22" y2="43.996" gradientUnits="userSpaceOnUse"><stop stop-color="#FF8B4A"/><stop offset="1" stop-color="#FF6534"/></linearGradient></defs></svg>