<svg width="44" height="44" fill="none" xmlns="http://www.w3.org/2000/svg"><path d="M25.388 43.957H10.292C4.617 43.957 0 39.34 0 33.665v-23.33C0 4.66 4.617.043 10.292.043h23.33c5.675 0 10.292 4.617 10.292 10.292v8.663c-.09 2.276-3.34 2.274-3.43 0v-8.663a6.87 6.87 0 00-6.862-6.861h-23.33a6.87 6.87 0 00-6.861 6.861v23.33a6.87 6.87 0 006.861 6.861h15.096c2.276.091 2.274 3.341 0 3.431zm-2.128-28.81l5.314-5.314a1.715 1.715 0 00-2.426-2.426l-5.314 5.314a1.717 1.717 0 01-2.43-.005L13.14 7.412a1.715 1.715 0 10-2.436 2.416l5.264 5.305a5.112 5.112 0 003.643 1.52h.01a5.112 5.112 0 003.639-1.506zM9.884 28.521l3.685-3.736c1.971-2 1.966-5.247-.013-7.24L9.88 13.844a1.716 1.716 0 00-2.435 2.417l3.677 3.703a1.72 1.72 0 01.004 2.413L7.44 26.113a1.715 1.715 0 102.443 2.41zM38.406 42.22C42.118 37.506 44 33.91 44 31.534c0-5.068-4.117-9.19-9.177-9.19s-9.178 4.122-9.178 9.19c0 2.378 1.882 5.972 5.595 10.685a4.535 4.535 0 003.583 1.738 4.535 4.535 0 003.583-1.738zm-1.348-1.062zm3.511-9.623c0 1.157-1.276 4.014-4.858 8.562a1.125 1.125 0 01-1.776 0c-3.583-4.548-4.859-7.405-4.859-8.562 0-3.176 2.578-5.76 5.747-5.76 3.168 0 5.746 2.584 5.746 5.76zm-30.19 5.562c-1.507.009-2.295-1.854-1.214-2.929l24.96-24.959a1.715 1.715 0 112.425 2.426l-24.959 24.96a1.71 1.71 0 01-1.213.502zm22.3-5.747c0 1.184.96 2.144 2.144 2.144 2.844-.113 2.843-4.176 0-4.288-1.185 0-2.145.96-2.145 2.144z" fill="url(#paint0_linear_909_61)"/><defs><linearGradient id="paint0_linear_909_61" x1="22" y1=".043" x2="22" y2="43.957" gradientUnits="userSpaceOnUse"><stop stop-color="#FF8B4A"/><stop offset="1" stop-color="#FF6534"/></linearGradient></defs></svg>