<svg width="20" height="20" fill="none" xmlns="http://www.w3.org/2000/svg"><path d="M1 10v1h18V9H1.001L1 10zm17 0a8 8 0 01-8 8v2c5.523 0 10-4.477 10-10h-2zm-8 8a8 8 0 01-8-8H0c0 5.523 4.477 10 10 10v-2zm-8-8a8 8 0 018-8V0C4.477 0 0 4.477 0 10h2zm8-8a8 8 0 018 8h2c0-5.523-4.477-10-10-10v2zm0-1l-.753.658v.001a2.073 2.073 0 01.066.078 14.496 14.496 0 01.947 1.34 15.53 15.53 0 011.733 3.828c.909 3.115.925 7.242-2.746 11.436l1.506 1.317c4.204-4.805 4.22-9.677 3.16-13.313A17.528 17.528 0 0010.86.47a6.5 6.5 0 00-.097-.116l-.006-.008a.128.128 0 00-.004-.004L10 1zm0 0L9.255.332v.001l-.003.003a2.583 2.583 0 00-.106.124c-.065.077-.156.188-.267.33-.221.284-.523.696-.858 1.217A17.326 17.326 0 006.01 6.338c-1.092 3.644-1.072 8.524 3.247 13.33l1.488-1.336c-3.77-4.194-3.75-8.314-2.82-11.42a15.327 15.327 0 011.78-3.825c.298-.463.564-.825.753-1.068a9.47 9.47 0 01.274-.336l.012-.014.002-.002c0 .001-.001.001-.745-.667z" fill="#2764BF"/></svg>