<svg width="30" height="30" fill="none" xmlns="http://www.w3.org/2000/svg"><path fill-rule="evenodd" clip-rule="evenodd" d="M22.5 30h-15A7.5 7.5 0 010 22.5v-15A7.5 7.5 0 017.5 0h15A7.5 7.5 0 0130 7.5v15a7.5 7.5 0 01-7.5 7.5z" fill="#FF3A55"/><path fill-rule="evenodd" clip-rule="evenodd" d="M14.063 8.438H22.5a4.22 4.22 0 00.431-8.416C22.788.014 22.646 0 22.5 0h-15A7.5 7.5 0 000 7.5v15A14.063 14.063 0 0114.063 8.437z" fill="#FF796C"/><path fill-rule="evenodd" clip-rule="evenodd" d="M22.5 15a7.5 7.5 0 107.5 7.5v-15a7.5 7.5 0 01-7.5 7.5z" fill="#E00047"/><path d="M20.86 10.313a1.172 1.172 0 100-2.344 1.172 1.172 0 000 2.343z" fill="#fff"/><path fill-rule="evenodd" clip-rule="evenodd" d="M15 11.25a3.75 3.75 0 110 7.5 3.75 3.75 0 010-7.5zm0-1.875a5.625 5.625 0 110 11.25 5.625 5.625 0 010-11.25z" fill="#fff"/><path fill-rule="evenodd" clip-rule="evenodd" d="M24.375 10.313a4.688 4.688 0 00-4.688-4.688h-9.375a4.687 4.687 0 00-4.687 4.688v9.374a4.688 4.688 0 004.688 4.688h9.374a4.688 4.688 0 004.688-4.688v-9.375zm1.875 0a6.563 6.563 0 00-6.563-6.563h-9.375a6.563 6.563 0 00-6.562 6.563v9.374a6.562 6.562 0 006.563 6.563h9.374a6.563 6.563 0 006.563-6.563v-9.375z" fill="#fff"/></svg>