<svg width="183" height="42" fill="none" xmlns="http://www.w3.org/2000/svg"><path d="M147.616.866h-36.903c-3.611 0-6.741 2.537-7.542 6.115l-6.696 34.217h73.319c3.666 0 6.828-2.615 7.574-6.26l4.868-23.814L147.616.866z" fill="#7A191A"/><path d="M169.792 41.198H96.475l6.696-34.217c.801-3.576 3.931-6.115 7.542-6.115h36.903s10.484 7.007 12.44 15.217c0 0 9.877-8.604 22.178-4.959l-4.868 23.814c-.744 3.647-3.908 6.26-7.574 6.26z" fill="#C93533"/><path d="M5.52 30.613a7.52 7.52 0 01-2.69-.484c-.85-.323-1.547-.781-2.089-1.378l1.368-1.65c1.159 1.086 2.404 1.627 3.736 1.627.787 0 1.422-.18 1.9-.541.48-.362.72-.841.72-1.438 0-.424-.197-.747-.592-.966-.395-.219-1.01-.447-1.844-.682a21.721 21.721 0 01-1.532-.507c-.433-.166-.789-.352-1.068-.564a2.177 2.177 0 01-.626-.719 2.028 2.028 0 01-.209-.942c0-.692.148-1.316.44-1.874a4.482 4.482 0 011.184-1.426 5.534 5.534 0 011.718-.908 6.629 6.629 0 012.066-.318c.864 0 1.638.14 2.318.424a4.994 4.994 0 011.763 1.226l-1.415 1.553a4.684 4.684 0 00-1.461-1.025 4.098 4.098 0 00-1.647-.341c-.68 0-1.261.166-1.74.493-.479.33-.72.834-.72 1.507 0 .394.162.686.486.884.325.199.867.397 1.624.602.65.173 1.214.352 1.693.544.478.189.878.396 1.195.624.318.228.554.49.708.788.154.3.231.645.231 1.037 0 .659-.136 1.26-.406 1.802a4.166 4.166 0 01-1.136 1.4c-.486.395-1.07.701-1.751.92a7.138 7.138 0 01-2.223.332zm10.878-.046c-.665 0-1.223-.162-1.67-.484-.45-.32-.674-.837-.674-1.544 0-.267.032-.528.093-.776l1.622-7.706h-1.554l.44-2.002h1.507l.857-4.053h2.552l-.857 4.053h2.504l-.418 2.003h-2.477l-1.438 6.88a2.005 2.005 0 00-.047.355c0 .313.093.541.279.681.186.143.408.212.673.212a2.78 2.78 0 001.021-.188c.325-.127.572-.229.742-.307l.093 2.05c-.356.222-.828.413-1.416.577-.59.166-1.2.249-1.832.249zm7.98-12.512h2.552l-2.598 12.323H21.78l2.598-12.323zm.996-4.878h2.552l-.581 2.853h-2.552l.58-2.853zm5.219 17.39c-.712 0-1.256-.173-1.635-.519-.38-.345-.567-.838-.567-1.484a3.585 3.585 0 01.093-.802l3.04-14.585h2.526L31.22 26.82a1.86 1.86 0 00-.071.473c0 .313.088.557.265.73.18.173.422.26.733.26.17 0 .37-.032.604-.094a8.8 8.8 0 00.673-.212l-.093 2.025a6.825 6.825 0 01-1.368.413c-.51.099-.966.152-1.37.152zm7.309-12.512h2.552l-2.597 12.323h-2.552l2.597-12.323zm.996-4.878h2.552l-.58 2.853h-2.553l.58-2.853zm5.127 4.878h2.295l-.51 2.473a6.442 6.442 0 012.298-1.968 6.28 6.28 0 012.921-.719c.51 0 .935.072 1.275.212.34.14.615.341.824.601.208.259.36.563.453.908.093.346.139.73.139 1.155 0 .33-.028.675-.082 1.037-.052.361-.12.73-.197 1.108l-1.554 7.516h-2.552l1.438-6.903c.063-.298.109-.57.14-.811a5.36 5.36 0 00.048-.696c0-1.21-.496-1.814-1.483-1.814-.34 0-.697.072-1.069.212a4.581 4.581 0 00-1.09.602 6.485 6.485 0 00-1.01.917 4.86 4.86 0 00-.776 1.166l-1.554 7.327h-2.552l2.598-12.323zm15.078 17.576c-1.284 0-2.3-.23-3.051-.696-.749-.463-1.334-1.11-1.752-1.944l1.718-1.367a3.278 3.278 0 001.381 1.507c.61.346 1.311.519 2.098.519.497 0 .978-.072 1.45-.212s.91-.362 1.311-.66a4.17 4.17 0 001.032-1.13c.286-.457.49-.998.615-1.627l.37-1.885a5.547 5.547 0 01-2.017 1.744c-.805.408-1.602.613-2.389.613-.648 0-1.23-.134-1.74-.4a3.842 3.842 0 01-1.286-1.086 4.996 4.996 0 01-.798-1.579 6.377 6.377 0 01-.28-1.907c0-1.005.187-1.97.559-2.899a8.32 8.32 0 011.495-2.452A7.386 7.386 0 0160 18.475a5.686 5.686 0 012.634-.636c.927 0 1.68.235 2.261.707.58.47 1.023 1.085 1.334 1.839l.485-2.332h2.25l-2.504 11.97c-.186.894-.51 1.689-.973 2.38a6.988 6.988 0 01-1.672 1.756 7.26 7.26 0 01-2.18 1.094 8.441 8.441 0 01-2.533.378zm2.039-7.233c.356 0 .712-.066 1.068-.2a4.464 4.464 0 001.021-.544 5.28 5.28 0 00.883-.776c.263-.29.471-.602.626-.931l.696-3.228c-.125-.786-.44-1.427-.95-1.92-.51-.495-1.098-.744-1.763-.744-.587 0-1.146.152-1.67.461a5.106 5.106 0 00-1.381 1.178 5.62 5.62 0 00-.928 1.626 5.098 5.098 0 00-.338 1.779c0 .454.066.883.198 1.283.131.401.317.752.558 1.049.24.3.524.534.857.707.331.173.706.26 1.123.26zm13.987 2.215c-.774 0-1.454-.138-2.042-.412a4.369 4.369 0 01-1.483-1.109 4.766 4.766 0 01-.917-1.627 6.199 6.199 0 01-.313-1.99c0-.989.193-1.945.581-2.862a8.11 8.11 0 011.579-2.44 7.647 7.647 0 012.354-1.696 6.778 6.778 0 012.91-.636c.774 0 1.46.138 2.054.412a4.47 4.47 0 011.506 1.109c.41.463.719 1.009.928 1.638.208.63.313 1.295.313 2.002a7.14 7.14 0 01-.58 2.828 8.047 8.047 0 01-1.591 2.426 7.959 7.959 0 01-2.366 1.707c-.9.433-1.88.65-2.933.65zm.488-2.214c.54 0 1.07-.134 1.587-.401.52-.268.978-.632 1.382-1.097a5.666 5.666 0 00.973-1.613 5.18 5.18 0 00.372-1.956c0-.943-.236-1.724-.708-2.344-.472-.62-1.102-.93-1.891-.93-.54 0-1.069.138-1.58.412a4.98 4.98 0 00-1.378 1.108 5.529 5.529 0 00-.987 1.616 5.176 5.176 0 00-.372 1.954c0 .942.236 1.72.707 2.334.477.61 1.108.917 1.895.917zm12.598 2.214a7.52 7.52 0 01-2.69-.484c-.85-.323-1.547-.781-2.09-1.378l1.369-1.65c1.159 1.086 2.404 1.627 3.736 1.627.787 0 1.422-.18 1.9-.541.48-.362.72-.841.72-1.438 0-.424-.198-.747-.592-.966-.395-.219-1.01-.447-1.844-.682a21.713 21.713 0 01-1.532-.507c-.433-.166-.79-.352-1.068-.564a2.177 2.177 0 01-.626-.719 2.028 2.028 0 01-.209-.942c0-.692.147-1.316.44-1.874a4.481 4.481 0 011.184-1.426 5.534 5.534 0 011.718-.908 6.628 6.628 0 012.066-.318c.864 0 1.638.14 2.318.424.68.284 1.268.692 1.763 1.226l-1.416 1.553a4.685 4.685 0 00-1.46-1.025 4.098 4.098 0 00-1.647-.341c-.68 0-1.262.166-1.74.493-.479.33-.72.834-.72 1.507 0 .394.162.686.486.884.325.196.867.397 1.624.602a15.1 15.1 0 011.692.544c.48.189.878.396 1.196.624.318.228.553.49.708.788.154.3.231.645.231 1.037 0 .659-.136 1.26-.406 1.802a4.168 4.168 0 01-1.136 1.4c-.486.395-1.071.701-1.752.92a7.138 7.138 0 01-2.223.332z" fill="#919090"/><path d="M108.817 30.59c-.88 0-1.545-.198-1.994-.59-.447-.392-.674-.966-.674-1.72 0-.156.012-.312.037-.47.022-.156.05-.329.081-.517l2.945-14.116h3.713l-2.692 12.795a2.616 2.616 0 00-.046.493c0 .613.295.92.883.92.17 0 .367-.028.592-.083.224-.053.437-.136.637-.25l-.116 2.828a7.934 7.934 0 01-1.671.518 8.536 8.536 0 01-1.695.192zm9.604.023c-.943 0-1.655-.251-2.134-.754-.479-.502-.719-1.242-.719-2.214 0-.505.07-1.076.209-1.721l1.671-7.917h3.686l-1.483 7.092a5.102 5.102 0 00-.116.92c0 .942.386 1.412 1.162 1.412.417 0 .862-.134 1.334-.401.471-.267.945-.73 1.426-1.39l1.602-7.633h3.713l-1.694 8.129a2.532 2.532 0 00-.071.493c0 .362.2.548.604.567l-.674 3.18a6.738 6.738 0 01-1.576.186c-.588 0-1.069-.117-1.439-.352-.369-.235-.555-.62-.555-1.155 0-.094.011-.2.034-.318.022-.117.05-.285.081-.507-.696.816-1.47 1.417-2.32 1.802-.855.39-1.767.58-2.741.58zm19.368 0c-.882 0-1.61-.2-2.182-.602-.572-.4-.966-.963-1.184-1.684l-.418 2.048h-3.248l3.596-17.2h3.711l-1.439 6.857a5.62 5.62 0 011.833-1.65 4.636 4.636 0 012.298-.613c.633 0 1.198.13 1.695.39.494.258.907.613 1.241 1.06.331.447.583.974.753 1.58.17.607.254 1.26.254 1.968a8.001 8.001 0 01-.581 3.053 8.61 8.61 0 01-1.531 2.498 7.076 7.076 0 01-2.205 1.684 5.84 5.84 0 01-2.593.61zm-.324-3.18c.433 0 .85-.106 1.252-.318a3.75 3.75 0 001.068-.848c.309-.352.556-.765.742-1.237a4.06 4.06 0 00.279-1.507c0-.707-.165-1.306-.499-1.802-.331-.495-.794-.744-1.379-.744-.526 0-1.057.205-1.59.613a5.21 5.21 0 00-1.334 1.53l-.558 2.592c.154.535.399.954.733 1.26.331.307.76.461 1.286.461zm14.937 3.18c-.85 0-1.592-.139-2.227-.413a4.417 4.417 0 01-1.577-1.117 4.719 4.719 0 01-.941-1.638 6.2 6.2 0 01-.313-1.991c0-.975.186-1.922.558-2.839a7.82 7.82 0 011.579-2.463 7.72 7.72 0 012.447-1.733c.951-.43 2.005-.647 3.167-.647.835 0 1.57.136 2.205.412a4.546 4.546 0 011.588 1.12c.424.47.741 1.018.95 1.638.209.622.313 1.284.313 1.991 0 .975-.186 1.922-.558 2.839a7.668 7.668 0 01-1.579 2.449 7.96 7.96 0 01-2.447 1.733c-.949.438-2.003.659-3.165.659zm.674-3.18a2.55 2.55 0 001.207-.306 3.23 3.23 0 001.021-.862 4.52 4.52 0 00.707-1.284 4.543 4.543 0 00.268-1.58c0-.738-.166-1.327-.499-1.767-.331-.44-.785-.662-1.357-.662a2.57 2.57 0 00-1.206.307 3.18 3.18 0 00-1.021.86 4.501 4.501 0 00-.708 1.283 4.53 4.53 0 00-.265 1.578c0 .74.165 1.327.499 1.767.329.445.782.666 1.354.666zm13.801 3.18a7.788 7.788 0 01-2.795-.507c-.889-.339-1.603-.83-2.146-1.473l1.788-2.308c.587.518 1.191.92 1.81 1.203.619.283 1.23.424 1.833.424.494 0 .866-.107 1.114-.319.247-.211.372-.497.372-.859 0-.267-.127-.49-.384-.673-.256-.18-.698-.373-1.333-.576a18.846 18.846 0 01-1.636-.601 5.132 5.132 0 01-1.125-.636 2.27 2.27 0 01-.649-.754 2.07 2.07 0 01-.209-.953c0-.692.15-1.332.454-1.922a4.833 4.833 0 011.218-1.52 5.834 5.834 0 011.785-1 6.405 6.405 0 012.18-.367c.867 0 1.652.127 2.355.375.703.252 1.35.708 1.937 1.367l-1.903 2.262c-.572-.486-1.091-.84-1.554-1.06a3.205 3.205 0 00-1.393-.33c-.417 0-.764.105-1.043.307-.279.205-.417.512-.417.92 0 .267.131.484.394.647.263.166.697.334 1.3.507 1.329.392 2.289.818 2.876 1.272.588.456.883 1.076.883 1.862 0 .691-.141 1.327-.418 1.91a4.39 4.39 0 01-1.17 1.495 5.384 5.384 0 01-1.797.966c-.694.226-1.476.34-2.327.34z" fill="#fff"/></svg>