<svg width="24" height="24" viewBox="0 0 24 24" fill="none" xmlns="http://www.w3.org/2000/svg">
<path d="M19.947 10.1529C19.9842 14.3818 14.5524 19.9429 12.6491 21.7607C12.2817 22.1116 11.7198 22.1102 11.3538 21.7578C9.4484 19.9231 3.98861 14.3016 4.04773 10.1782C3.91564 5.57145 7.56133 2 11.991 2C16.4206 2 20.0952 5.61095 19.947 10.1529Z" stroke="#0E2249" stroke-width="2"/>
<path d="M13.9941 10C13.9941 11.1046 13.0987 12 11.9941 12C10.8895 12 9.9941 11.1046 9.9941 10C9.9941 8.89543 10.8895 8 11.9941 8C13.0987 8 13.9941 8.89543 13.9941 10Z" stroke="#0E2249" stroke-width="2"/>
</svg>
