<svg width="20" height="20" viewBox="0 0 20 20" fill="none" xmlns="http://www.w3.org/2000/svg">
<path d="M9.00301 9.99161C9.00301 10.5439 9.45073 10.9916 10.003 10.9916C10.5553 10.9916 11.003 10.5439 11.003 9.99161H9.00301ZM11.003 4.99999C11.003 4.44771 10.5553 3.99999 10.003 3.99999C9.45073 3.99999 9.00301 4.44771 9.00301 4.99999H11.003ZM10.3109 9.05278C9.78675 8.87864 9.22071 9.16235 9.04657 9.68647C8.87243 10.2106 9.15614 10.7766 9.68026 10.9508L10.3109 9.05278ZM12.6847 11.949C13.2088 12.1231 13.7749 11.8394 13.949 11.3153C14.1231 10.7912 13.8394 10.2251 13.3153 10.051L12.6847 11.949ZM18 10C18 14.4183 14.4183 18 10 18V20C15.5228 20 20 15.5228 20 10H18ZM10 18C5.58172 18 2 14.4183 2 10H0C0 15.5228 4.47715 20 10 20V18ZM2 10C2 5.58172 5.58172 2 10 2V0C4.47715 0 0 4.47715 0 10H2ZM10 2C14.4183 2 18 5.58172 18 10H20C20 4.47715 15.5228 0 10 0V2ZM11.003 9.99161V4.99999H9.00301V9.99161H11.003ZM9.68026 10.9508L12.6847 11.949L13.3153 10.051L10.3109 9.05278L9.68026 10.9508Z" fill="#0E2249"/>
</svg>
