<svg width="183" height="42" viewBox="0 0 183 42" fill="none" xmlns="http://www.w3.org/2000/svg">
<path d="M147.616 0.866211H110.713C107.102 0.866211 103.972 3.40308 103.171 6.98142L96.4746 41.198H169.794C173.46 41.198 176.622 38.5828 177.368 34.9376L182.236 11.1243L147.616 0.866211Z" fill="#7A191A"/>
<path d="M169.792 41.198H96.4746L103.171 6.98142C103.972 3.40538 107.102 0.866211 110.713 0.866211H147.616C147.616 0.866211 158.1 7.87313 160.056 16.0828C160.056 16.0828 169.933 7.47912 182.234 11.1243L177.366 34.9376C176.622 38.5851 173.458 41.198 169.792 41.198Z" fill="#C93533"/>
<path d="M5.52052 30.6129C4.57686 30.6129 3.68084 30.4516 2.83018 30.129C1.97953 29.8064 1.28313 29.3479 0.740978 28.7511L2.10883 27.1013C3.26799 28.1866 4.51334 28.7281 5.8449 28.7281C6.63204 28.7281 7.26719 28.5483 7.74582 28.1866C8.22446 27.8248 8.46491 27.3456 8.46491 26.7488C8.46491 26.3248 8.26756 26.0023 7.87285 25.7834C7.47815 25.5645 6.86341 25.3363 6.02864 25.1013C5.44112 24.9285 4.93073 24.758 4.49746 24.5944C4.0642 24.4285 3.70806 24.2419 3.42904 24.0299C3.15003 23.8179 2.9436 23.5783 2.80296 23.311C2.66459 23.0437 2.59427 22.7281 2.59427 22.3686C2.59427 21.6774 2.74171 21.0529 3.03434 20.4953C3.32923 19.94 3.72167 19.4631 4.21845 19.0691C4.71296 18.6774 5.28687 18.3755 5.93563 18.1612C6.58667 17.9493 7.274 17.8433 8.00215 17.8433C8.86642 17.8433 9.63995 17.9838 10.3205 18.2672C11.001 18.5506 11.5885 18.9585 12.083 19.493L10.6675 21.046C10.2207 20.5921 9.73295 20.2511 9.20668 20.0207C8.68041 19.7926 8.13145 19.6797 7.55981 19.6797C6.87929 19.6797 6.29858 19.8456 5.81995 20.1728C5.34131 20.5023 5.10086 21.0069 5.10086 21.6797C5.10086 22.0737 5.26192 22.3663 5.5863 22.5645C5.91068 22.7626 6.45283 22.9608 7.21048 23.1658C7.85924 23.3387 8.42408 23.5184 8.90271 23.7096C9.38135 23.8986 9.78059 24.1059 10.0982 24.334C10.4157 24.5622 10.6517 24.8248 10.8059 25.1221C10.9602 25.4216 11.0373 25.7672 11.0373 26.1589C11.0373 26.8179 10.9012 27.4193 10.6312 27.9608C10.3613 28.5022 9.98248 28.97 9.49477 29.3617C9.00933 29.7557 8.42408 30.0622 7.74356 30.2811C7.0653 30.5023 6.32353 30.6129 5.52052 30.6129Z" fill="#919090"/>
<path d="M16.3975 30.5667C15.7329 30.5667 15.1749 30.4054 14.728 30.0828C14.2788 29.7626 14.0543 29.2464 14.0543 28.5391C14.0543 28.2718 14.086 28.0114 14.1473 27.7626L15.7692 20.0575H14.2153L14.6554 18.0552H16.1616L17.0191 14.0022H19.571L18.7136 18.0552H21.2179L20.8005 20.0575H18.3234L16.8852 26.9377C16.8535 27.0967 16.8376 27.2142 16.8376 27.2925C16.8376 27.6059 16.9306 27.834 17.1166 27.9745C17.3026 28.1174 17.5249 28.1865 17.7903 28.1865C18.1465 28.1865 18.4867 28.1243 18.8111 27.9976C19.1355 27.8709 19.3828 27.7695 19.5529 27.6911L19.6459 29.7418C19.2898 29.963 18.8179 30.1543 18.2304 30.3179C17.6406 30.4838 17.0304 30.5667 16.3975 30.5667Z" fill="#919090"/>
<path d="M24.3778 18.0551H26.9298L24.3324 30.3777H21.7805L24.3778 18.0551ZM25.3736 13.1772H27.9256L27.3449 16.0298H24.7929L25.3736 13.1772Z" fill="#919090"/>
<path d="M30.5932 30.5666C29.881 30.5666 29.3365 30.3938 28.9577 30.0482C28.5789 29.7026 28.3906 29.2095 28.3906 28.5643C28.3906 28.4376 28.3974 28.3086 28.4133 28.1749C28.4269 28.0413 28.4519 27.9054 28.4836 27.7625L31.5233 13.1772H34.0503L31.2193 26.8201C31.1739 26.9929 31.149 27.1496 31.149 27.2925C31.149 27.6058 31.2375 27.8501 31.4144 28.0229C31.5936 28.1957 31.8363 28.2832 32.1471 28.2832C32.3172 28.2832 32.5168 28.251 32.7505 28.1888C32.9819 28.1266 33.2064 28.0551 33.4242 27.9768L33.3312 30.0021C32.9297 30.1749 32.4737 30.3132 31.9634 30.4146C31.453 30.5137 30.997 30.5666 30.5932 30.5666Z" fill="#919090"/>
<path d="M37.902 18.0551H40.454L37.8567 30.3777H35.3047L37.902 18.0551ZM38.8979 13.1772H41.4498L40.8691 16.0298H38.3172L38.8979 13.1772Z" fill="#919090"/>
<path d="M44.0245 18.0553H46.3201L45.8097 20.5277C46.4131 19.6959 47.1776 19.0392 48.1076 18.56C49.0354 18.0807 50.0085 17.8411 51.0293 17.8411C51.5397 17.8411 51.9639 17.9125 52.3042 18.053C52.6444 18.1936 52.9189 18.3941 53.1276 18.6544C53.3363 18.9125 53.4883 19.2166 53.5813 19.5623C53.6743 19.9079 53.7197 20.2927 53.7197 20.7166C53.7197 21.0461 53.6924 21.3918 53.638 21.7535C53.5858 22.1153 53.5178 22.4839 53.4406 22.8618L51.8868 30.3779H49.3348L50.773 23.4747C50.8365 23.1775 50.8819 22.9056 50.9136 22.6636C50.9454 22.4194 50.9613 22.189 50.9613 21.9678C50.9613 20.7581 50.4645 20.1544 49.4777 20.1544C49.1375 20.1544 48.7813 20.2259 48.4093 20.3664C48.0373 20.507 47.6744 20.7074 47.3182 20.9678C46.9621 21.2259 46.6263 21.5323 46.3088 21.8848C45.9912 22.2397 45.7326 22.6291 45.533 23.0507L43.9791 30.3779H41.4272L44.0245 18.0553Z" fill="#919090"/>
<path d="M59.1026 35.6313C57.8187 35.6313 56.8024 35.4008 56.0516 34.9354C55.303 34.4723 54.7178 33.8248 54.3004 32.9907L56.0176 31.6243C56.3261 32.2833 56.7866 32.7856 57.399 33.1312C58.0092 33.4769 58.7102 33.6497 59.4973 33.6497C59.9941 33.6497 60.475 33.5783 60.9468 33.4377C61.4186 33.2972 61.8565 33.0759 62.258 32.7787C62.6595 32.4792 63.0043 32.1013 63.2901 31.6474C63.5759 31.1912 63.7801 30.6497 63.9048 30.0206L64.2746 28.1359C63.7347 28.8893 63.061 29.4723 62.258 29.8801C61.4527 30.2879 60.6565 30.493 59.8693 30.493C59.2206 30.493 58.6399 30.3594 58.1295 30.0921C57.6191 29.8248 57.1903 29.463 56.8433 29.0068C56.4962 28.5529 56.2285 28.0253 56.0448 27.4285C55.8588 26.8317 55.7658 26.1958 55.7658 25.5206C55.7658 24.516 55.9518 23.5506 56.3238 22.622C56.6936 21.6958 57.1926 20.8778 57.8187 20.1704C58.4448 19.463 59.1729 18.8985 60.0009 18.4746C60.8266 18.0506 61.7045 17.8386 62.6345 17.8386C63.5623 17.8386 64.3154 18.0736 64.8961 18.546C65.4768 19.016 65.9192 19.6312 66.2299 20.3847L66.7154 18.0529H68.9656L66.4613 30.023C66.2753 30.917 65.9509 31.7119 65.4882 32.4031C65.0254 33.0944 64.4674 33.6796 63.8164 34.1589C63.1676 34.6382 62.4394 35.0045 61.6364 35.2534C60.8243 35.5068 59.9827 35.6313 59.1026 35.6313ZM61.1419 28.3985C61.498 28.3985 61.8542 28.3317 62.2103 28.1981C62.5665 28.0644 62.9067 27.8847 63.2311 27.6543C63.5555 27.4262 63.8504 27.1681 64.1135 26.8778C64.3767 26.5875 64.5853 26.2764 64.7396 25.9469L65.436 22.7188C65.3112 21.9331 64.9959 21.2925 64.4855 20.7995C63.9751 20.3041 63.3876 20.0552 62.723 20.0552C62.1355 20.0552 61.5774 20.2073 61.0534 20.516C60.5272 20.8225 60.0667 21.2142 59.672 21.6935C59.2773 22.1727 58.9688 22.7165 58.7442 23.3202C58.5196 23.9262 58.4062 24.5183 58.4062 25.099C58.4062 25.5529 58.472 25.9815 58.6036 26.3824C58.7351 26.7833 58.9211 27.1336 59.1616 27.4308C59.402 27.7303 59.6856 27.9654 60.019 28.1382C60.3502 28.311 60.7245 28.3985 61.1419 28.3985Z" fill="#919090"/>
<path d="M75.1289 30.613C74.3554 30.613 73.6748 30.4747 73.0873 30.2005C72.4998 29.9263 72.0053 29.5577 71.6038 29.0922C71.2023 28.6291 70.896 28.0876 70.6874 27.4655C70.4787 26.8457 70.3743 26.1821 70.3743 25.4747C70.3743 24.4862 70.5671 23.53 70.955 22.613C71.3407 21.6936 71.8669 20.8825 72.5338 20.1729C73.1985 19.4655 73.9834 18.901 74.8884 18.477C75.7935 18.053 76.7644 17.8411 77.7988 17.8411C78.5723 17.8411 79.2574 17.9793 79.8517 18.2535C80.4483 18.5277 80.9496 18.8987 81.358 19.3618C81.7685 19.8249 82.077 20.371 82.2857 21C82.4944 21.6291 82.5988 22.295 82.5988 23.0024C82.5988 23.977 82.406 24.9194 82.0181 25.8295C81.6302 26.7397 81.1016 27.5507 80.4279 28.2558C79.7542 28.9632 78.967 29.5323 78.062 29.9632C77.1614 30.3964 76.1814 30.613 75.1289 30.613ZM75.6166 28.3987C76.1565 28.3987 76.6873 28.265 77.2045 27.9977C77.724 27.7305 78.1822 27.3664 78.586 26.901C78.9875 26.4378 79.3141 25.8987 79.5591 25.2881C79.8064 24.6752 79.9311 24.0231 79.9311 23.3318C79.9311 22.3894 79.6952 21.6083 79.2234 20.9885C78.7515 20.3687 78.1209 20.0577 77.3315 20.0577C76.7916 20.0577 76.2631 20.1959 75.7527 20.4701C75.2423 20.7443 74.7818 21.1153 74.3735 21.5784C73.9629 22.0415 73.634 22.5807 73.3868 23.1936C73.1395 23.8065 73.0147 24.4586 73.0147 25.1475C73.0147 26.0899 73.2507 26.8687 73.7225 27.4816C74.1989 28.0922 74.8295 28.3987 75.6166 28.3987Z" fill="#919090"/>
<path d="M88.2153 30.6129C87.2717 30.6129 86.3757 30.4516 85.525 30.129C84.6744 29.8064 83.978 29.3479 83.4358 28.7511L84.8037 27.1013C85.9628 28.1866 87.2082 28.7281 88.5397 28.7281C89.3269 28.7281 89.962 28.5483 90.4406 28.1866C90.9193 27.8248 91.1597 27.3456 91.1597 26.7488C91.1597 26.3248 90.9624 26.0023 90.5677 25.7834C90.173 25.5645 89.5582 25.3363 88.7235 25.1013C88.1359 24.9285 87.6256 24.758 87.1923 24.5944C86.759 24.4285 86.4029 24.2419 86.1239 24.0299C85.8449 23.8179 85.6384 23.5783 85.4978 23.311C85.3594 23.0437 85.2891 22.7281 85.2891 22.3686C85.2891 21.6774 85.4365 21.0529 85.7292 20.4953C86.0241 19.94 86.4165 19.4631 86.9133 19.0691C87.4078 18.6774 87.9817 18.3755 88.6305 18.1612C89.2815 17.9493 89.9688 17.8433 90.697 17.8433C91.5612 17.8433 92.3348 17.9838 93.0153 18.2672C93.6958 18.5506 94.2833 18.9585 94.7778 19.493L93.3624 21.046C92.9155 20.5921 92.4278 20.2511 91.9015 20.0207C91.3752 19.7926 90.8263 19.6797 90.2546 19.6797C89.5741 19.6797 88.9934 19.8456 88.5148 20.1728C88.0361 20.5023 87.7957 21.0069 87.7957 21.6797C87.7957 22.0737 87.9567 22.3663 88.2811 22.5645C88.6055 22.7603 89.1477 22.9608 89.9053 23.1658C90.5541 23.3387 91.1189 23.5184 91.5975 23.7096C92.0762 23.8986 92.4754 24.1059 92.793 24.334C93.1106 24.5622 93.3465 24.8248 93.5007 25.1221C93.655 25.4216 93.7321 25.7672 93.7321 26.1589C93.7321 26.8179 93.596 27.4193 93.3261 27.9608C93.0561 28.5022 92.6773 28.97 92.1896 29.3617C91.7042 29.7557 91.1189 30.0622 90.4384 30.2811C89.7601 30.5023 89.0184 30.6129 88.2153 30.6129Z" fill="#919090"/>
<path d="M108.817 30.5897C107.937 30.5897 107.272 30.3915 106.823 29.9998C106.376 29.6081 106.149 29.0344 106.149 28.2809C106.149 28.1243 106.161 27.9676 106.186 27.8109C106.208 27.6542 106.236 27.4814 106.267 27.2925L109.212 13.1772H112.925L110.233 25.9722C110.219 26.0505 110.205 26.1335 110.198 26.2187C110.189 26.3063 110.187 26.3869 110.187 26.4653C110.187 27.0782 110.482 27.3846 111.07 27.3846C111.24 27.3846 111.437 27.357 111.662 27.3017C111.886 27.2487 112.099 27.1657 112.299 27.0528L112.183 29.88C111.687 30.1012 111.131 30.274 110.512 30.3985C109.892 30.5252 109.327 30.5897 108.817 30.5897Z" fill="white"/>
<path d="M118.421 30.6128C117.478 30.6128 116.766 30.3617 116.287 29.8594C115.808 29.3571 115.568 28.6174 115.568 27.6451C115.568 27.1405 115.638 26.569 115.777 25.9239L117.448 18.0068H121.134L119.651 25.099C119.574 25.4907 119.535 25.7972 119.535 26.0184C119.535 26.9608 119.921 27.4308 120.697 27.4308C121.114 27.4308 121.559 27.2972 122.031 27.0299C122.502 26.7626 122.976 26.2995 123.457 25.6405L125.059 18.0068H128.772L127.078 26.1359C127.03 26.3548 127.007 26.5207 127.007 26.629C127.007 26.9907 127.207 27.1773 127.611 27.1958L126.937 30.3755C126.597 30.4538 126.3 30.5045 126.043 30.5276C125.789 30.5529 125.56 30.5621 125.361 30.5621C124.773 30.5621 124.292 30.4446 123.922 30.2096C123.553 29.9746 123.367 29.5898 123.367 29.0552C123.367 28.9607 123.378 28.8548 123.401 28.7372C123.423 28.6197 123.451 28.4515 123.482 28.2303C122.786 29.046 122.012 29.6474 121.162 30.0322C120.307 30.4216 119.395 30.6128 118.421 30.6128Z" fill="white"/>
<path d="M137.789 30.6128C136.907 30.6128 136.179 30.4124 135.607 30.0114C135.035 29.6105 134.641 29.0483 134.423 28.3271L134.005 30.3755H130.757L134.353 13.175H138.064L136.625 20.0322C137.12 19.3409 137.732 18.7903 138.458 18.3824C139.187 17.9746 139.951 17.7695 140.756 17.7695C141.389 17.7695 141.954 17.8986 142.451 18.1589C142.945 18.417 143.358 18.7718 143.692 19.2188C144.023 19.6658 144.275 20.1935 144.445 20.7995C144.615 21.4055 144.699 22.0598 144.699 22.7672C144.699 23.8525 144.506 24.8686 144.118 25.8202C143.73 26.7718 143.222 27.6036 142.587 28.3179C141.952 29.0322 141.219 29.5944 140.382 30.0022C139.554 30.4078 138.685 30.6128 137.789 30.6128ZM137.465 27.4331C137.898 27.4331 138.315 27.3271 138.717 27.1151C139.118 26.9032 139.475 26.6197 139.785 26.2672C140.094 25.9147 140.341 25.5022 140.527 25.0299C140.713 24.5598 140.806 24.0575 140.806 23.523C140.806 22.8156 140.641 22.2165 140.307 21.7211C139.976 21.2257 139.513 20.9769 138.928 20.9769C138.402 20.9769 137.871 21.182 137.338 21.5898C136.805 21.9976 136.36 22.5091 136.004 23.1197L135.446 25.7119C135.6 26.2465 135.845 26.6658 136.179 26.9723C136.51 27.2787 136.939 27.4331 137.465 27.4331Z" fill="white"/>
<path d="M152.402 30.6127C151.552 30.6127 150.81 30.4745 150.175 30.2003C149.54 29.9261 149.016 29.5528 148.598 29.0828C148.181 28.6104 147.865 28.0644 147.657 27.4445C147.448 26.8224 147.344 26.1611 147.344 25.4538C147.344 24.4791 147.53 23.5321 147.902 22.6151C148.274 21.6957 148.798 20.8754 149.481 20.1519C150.163 19.4284 150.978 18.8524 151.928 18.4192C152.879 17.9883 153.933 17.7717 155.095 17.7717C155.93 17.7717 156.665 17.9077 157.3 18.1842C157.933 18.4607 158.463 18.8316 158.888 19.304C159.312 19.774 159.629 20.3224 159.838 20.9422C160.047 21.5644 160.151 22.2257 160.151 22.933C160.151 23.9077 159.965 24.8547 159.593 25.7717C159.221 26.6911 158.697 27.5068 158.014 28.221C157.334 28.9353 156.517 29.5137 155.567 29.9538C154.618 30.3915 153.564 30.6127 152.402 30.6127ZM153.076 27.433C153.493 27.433 153.895 27.3316 154.283 27.1266C154.668 26.9215 155.011 26.6358 155.304 26.2648C155.598 25.8962 155.834 25.4676 156.011 24.9814C156.19 24.4952 156.279 23.9676 156.279 23.4008C156.279 22.6634 156.113 22.0736 155.78 21.6335C155.449 21.1934 154.995 20.9722 154.423 20.9722C154.006 20.9722 153.604 21.0759 153.217 21.2786C152.829 21.4814 152.488 21.7694 152.196 22.1381C151.901 22.5068 151.665 22.9353 151.488 23.4215C151.309 23.9077 151.223 24.433 151.223 24.9998C151.223 25.7395 151.388 26.327 151.722 26.7671C152.051 27.2118 152.504 27.433 153.076 27.433Z" fill="white"/>
<path d="M166.877 30.6127C165.904 30.6127 164.971 30.4445 164.082 30.1058C163.193 29.7671 162.479 29.2763 161.936 28.6335L163.724 26.3247C164.311 26.8432 164.915 27.2441 165.534 27.5275C166.153 27.8109 166.764 27.9515 167.367 27.9515C167.861 27.9515 168.233 27.8455 168.481 27.6335C168.728 27.4215 168.853 27.1358 168.853 26.774C168.853 26.5068 168.726 26.2833 168.469 26.1012C168.213 25.9215 167.771 25.728 167.136 25.5252C166.5 25.3201 165.956 25.1197 165.5 24.9238C165.044 24.728 164.668 24.516 164.375 24.2879C164.082 24.0597 163.865 23.8086 163.726 23.5344C163.586 23.2602 163.517 22.9422 163.517 22.5805C163.517 21.8892 163.667 21.2487 163.971 20.6588C164.273 20.069 164.679 19.5644 165.189 19.1381C165.697 18.7141 166.294 18.3823 166.974 18.1381C167.655 17.8938 168.381 17.7717 169.154 17.7717C170.021 17.7717 170.806 17.8985 171.509 18.1473C172.212 18.3985 172.859 18.8547 173.446 19.5137L171.543 21.7763C170.971 21.2902 170.452 20.9353 169.989 20.7164C169.526 20.4952 169.061 20.3869 168.596 20.3869C168.179 20.3869 167.832 20.4906 167.553 20.6934C167.274 20.8985 167.136 21.2049 167.136 21.6127C167.136 21.88 167.267 22.0966 167.53 22.2602C167.793 22.4261 168.227 22.5943 168.83 22.7671C170.159 23.1588 171.119 23.5851 171.706 24.039C172.294 24.4952 172.589 25.115 172.589 25.9008C172.589 26.592 172.448 27.228 172.171 27.8109C171.892 28.3915 171.502 28.8915 171.001 29.3063C170.5 29.7233 169.898 30.0459 169.204 30.2717C168.51 30.4975 167.728 30.6127 166.877 30.6127Z" fill="white"/>
</svg>
